<svg xmlns="http://www.w3.org/2000/svg" width="26" height="20"><defs><linearGradient id="nsrpa" x1="13" x2="13" y1="2" y2="18" gradientUnits="userSpaceOnUse"><stop offset="0" stop-color="#876532"/><stop offset=".5" stop-color="#ffe39e"/><stop offset="1" stop-color="#866430"/></linearGradient><clipPath id="nsrpd"><path fill="#fff" d="M0 20V0h26v20zm2-7.2h13.9V18l8.1-8-8.1-8v5.2H2z"/></clipPath><filter id="nsrpb" width="200%" height="200%" x="-50%" y="-50%"><feGaussianBlur in="SourceGraphic" result="FeGaussianBlur1035Out" stdDeviation="0 0"/></filter><mask id="nsrpc"><path fill="#fff" d="M2 12.8h13.9V18l8.1-8-8.1-8v5.2H2z"/></mask></defs><path d="M2 12.8h13.9V18l8.1-8-8.1-8v5.2H2z"/><path fill="url(#nsrpa)" d="M2 12.8h13.9V18l8.1-8-8.1-8v5.2H2z"/><path fill="#fff7d7" fill-opacity=".6" d="M2 20v-5.2h13.9V20zM2 0h22v12l-8.1-8v5.2H2zm22 20h-8.1l8.1-8zM2 14.8V9.2zM24 12" filter="url(#nsrpb)" mask="url(&quot;#nsrpc&quot;)"/><path fill="none" stroke="#050707" stroke-linecap="round" stroke-linejoin="round" stroke-miterlimit="50" stroke-width="4" d="M2 12.8h13.9V18l8.1-8v0l-8.1-8v5.2H2v0z" clip-path="url(&quot;#nsrpd&quot;)"/></svg>